<svg width="15" height="15" viewBox="0 0 15 15" fill="none" xmlns="http://www.w3.org/2000/svg">
<path d="M7.49843 13.6646C7.26187 13.6646 7.02219 13.5743 6.84166 13.3938L5.58103 12.1331H3.79748C3.28389 12.1331 2.86991 11.716 2.86991 11.2056V9.422L1.60617 8.15827C1.24511 7.7972 1.24511 7.20579 1.60617 6.84473L2.8668 5.5841V3.80055C2.8668 3.28696 3.28389 2.87298 3.79437 2.87298H5.57792L6.83855 1.61235C7.19961 1.25129 7.79102 1.25129 8.15209 1.61235L9.41271 2.87298H11.1963C11.7098 2.87298 12.1238 3.29007 12.1238 3.80055V5.5841L13.3845 6.84473C13.7455 7.20579 13.7455 7.7972 13.3845 8.15827L12.1238 9.41889V11.2024C12.1238 11.716 11.7067 12.13 11.1963 12.13H9.41894L8.15831 13.3906C7.97466 13.5743 7.7381 13.6646 7.49843 13.6646Z" fill="#F8AE00"/>
<path d="M13.7455 6.88525L12.3511 5.49078V3.51736C12.3511 3.03801 11.962 2.64893 11.4826 2.64893H9.50922L8.11475 1.25446C7.77547 0.91518 7.22453 0.91518 6.88525 1.25446L5.49078 2.64893H3.51736C3.03801 2.64893 2.64893 3.03801 2.64893 3.51736V5.49078L1.25446 6.88525C0.91518 7.22453 0.91518 7.77547 1.25446 8.11475L2.64893 9.50922V11.4826C2.64893 11.962 3.03801 12.3511 3.51736 12.3511H5.49078L6.88525 13.7455C7.22453 14.0848 7.77547 14.0848 8.11475 13.7455L9.50922 12.3511H11.4826C11.962 12.3511 12.3511 11.962 12.3511 11.4826V9.50922L13.7455 8.11475C14.0848 7.77547 14.0848 7.22453 13.7455 6.88525ZM13.1666 7.9311L11.8126 9.28511V11.2025C11.8126 11.5387 11.5387 11.8126 11.2025 11.8126H9.28511L7.9311 13.1666C7.69143 13.4063 7.30546 13.4063 7.0689 13.1666L5.71489 11.8126H3.7975C3.46133 11.8126 3.18742 11.5387 3.18742 11.2025V9.28511L1.83341 7.9311C1.59374 7.69143 1.59374 7.30546 1.83341 7.0689L3.18742 5.71489V3.7975C3.18742 3.46133 3.46133 3.18742 3.7975 3.18742H5.71489L7.0689 1.83341C7.30857 1.59374 7.69454 1.59374 7.9311 1.83341L9.28511 3.18742H11.2025C11.5387 3.18742 11.8126 3.46133 11.8126 3.7975V5.71489L13.1666 7.0689C13.4063 7.30857 13.4063 7.69454 13.1666 7.9311Z" stroke="#008669" stroke-width="0.2" stroke-miterlimit="10"/>
<path d="M7.05336 2.55869L2.55869 7.05336C2.31279 7.29926 2.31279 7.7008 2.55869 7.94981L3.66368 9.0548C4.02164 8.61903 4.57258 8.11167 5.37253 7.73504C7.08449 6.93197 8.12101 7.66033 9.18242 6.40905C9.84542 5.62777 9.6929 4.78424 9.51236 4.29555C9.44077 4.10879 9.32871 3.94071 9.18865 3.79753L7.94981 2.55869C7.7008 2.31279 7.29926 2.31279 7.05336 2.55869Z" fill="#008669"/>
<path d="M7.94664 12.4413L12.4413 7.94663C12.6872 7.70073 12.6872 7.2992 12.4413 7.05018L11.3363 5.94519C10.9784 6.38096 10.4274 6.88832 9.62748 7.26496C7.91552 8.06802 6.879 7.33966 5.81759 8.59095C5.15459 9.37222 5.30711 10.2158 5.48765 10.7044C5.55924 10.8912 5.67129 11.0593 5.81136 11.2025L7.0502 12.4413C7.29921 12.6872 7.70074 12.6872 7.94664 12.4413Z" fill="#008669"/>
<path d="M13.7455 6.88525L12.3511 5.49078V3.51736C12.3511 3.03801 11.962 2.64893 11.4826 2.64893H9.50922L8.11475 1.25446C7.77547 0.91518 7.22453 0.91518 6.88525 1.25446L5.49078 2.64893H3.51736C3.03801 2.64893 2.64893 3.03801 2.64893 3.51736V5.49078L1.25446 6.88525C0.91518 7.22453 0.91518 7.77547 1.25446 8.11475L2.64893 9.50922V11.4826C2.64893 11.962 3.03801 12.3511 3.51736 12.3511H5.49078L6.88525 13.7455C7.22453 14.0848 7.77547 14.0848 8.11475 13.7455L9.50922 12.3511H11.4826C11.962 12.3511 12.3511 11.962 12.3511 11.4826V9.50922L13.7455 8.11475C14.0848 7.77547 14.0848 7.22453 13.7455 6.88525ZM13.1666 7.9311L11.8126 9.28511V11.2025C11.8126 11.5387 11.5387 11.8126 11.2025 11.8126H9.28511L7.9311 13.1666C7.69143 13.4063 7.30546 13.4063 7.0689 13.1666L5.71489 11.8126H3.7975C3.46133 11.8126 3.18742 11.5387 3.18742 11.2025V9.28511L1.83341 7.9311C1.59374 7.69143 1.59374 7.30546 1.83341 7.0689L3.18742 5.71489V3.7975C3.18742 3.46133 3.46133 3.18742 3.7975 3.18742H5.71489L7.0689 1.83341C7.30857 1.59374 7.69454 1.59374 7.9311 1.83341L9.28511 3.18742H11.2025C11.5387 3.18742 11.8126 3.46133 11.8126 3.7975V5.71489L13.1666 7.0689C13.4063 7.30857 13.4063 7.69454 13.1666 7.9311Z" fill="#008669"/>
</svg>
