<svg width="15" height="15" viewBox="0 0 15 15" fill="none" xmlns="http://www.w3.org/2000/svg">
<path fill-rule="evenodd" clip-rule="evenodd" d="M7.85037 8.03967C9.1928 8.2469 9.37422 9.04113 9.48272 9.78052L9.5008 9.90652L9.5132 9.99227L9.57853 10.4273C9.70643 11.258 9.97317 12.9822 9.97317 13.882C9.97317 14.1069 9.95333 14.2794 9.91731 14.3744C9.85708 14.5205 9.68164 14.6608 9.43926 14.7777C8.85285 14.9221 8.24005 15.0001 7.60872 15.0001C7.54193 15.0001 7.47616 14.9969 7.41009 14.9949C7.15502 14.9224 6.96325 14.8014 6.8616 14.6361C6.55505 14.1371 6.53653 13.0252 6.53041 11.726L6.52968 11.5753L6.5272 11.1859C6.51728 9.81056 6.50868 8.62462 7.00831 8.19907C7.20198 8.035 7.47688 7.98075 7.85037 8.03967ZM4.92358 11.0341C5.21453 11.0178 5.40163 12.4486 5.43911 13.5336C5.46551 14.289 5.38617 14.5997 5.25944 14.7112C5.11609 14.6634 4.97521 14.6116 4.83637 14.5553C4.74377 14.3871 4.67289 14.1222 4.62797 13.7756C4.49074 12.6859 4.60989 11.0534 4.92358 11.0341ZM12.2166 13.1724C12.1985 13.2717 12.1728 13.3486 12.1413 13.4133C11.8927 13.613 11.6312 13.7961 11.3576 13.9609C11.2704 13.9756 11.1931 13.9654 11.1552 13.9014C10.7926 13.2644 10.6566 11.2659 11.0074 11.0919C11.4649 10.8711 12.2844 12.8269 12.2166 13.1724ZM7.50036 0C11.5849 0 14.9065 3.23465 14.9981 7.25959L15 7.39872V7.46303C14.9926 9.28117 14.3235 10.9446 13.2211 12.232C13.1811 12.2119 13.1082 12.1463 12.9761 11.9487C12.8393 11.7499 11.6602 9.93525 11.6602 7.85533C11.6602 7.44713 12.2485 6.80954 12.7691 6.24982C13.1584 5.82864 13.5271 5.43139 13.6628 5.11915C13.8358 4.7162 13.7147 4.43489 13.5234 4.33965C13.3502 4.25492 13.0901 4.31676 12.9077 4.64081C12.6083 5.16538 12.5123 5.26338 12.0755 5.61426C11.6458 5.965 10.9625 6.31807 10.9625 5.86102C10.9625 5.61426 11.3432 5.05527 11.5311 4.66356C11.7232 4.26746 11.5161 3.9806 11.1197 3.9806C10.3413 3.9806 9.82441 4.97229 9.82441 5.31588C9.82441 5.65918 9.99096 5.70804 9.99096 6.10792C9.99096 6.51072 9.1368 7.0331 8.33207 7.0331C7.55739 7.0331 7.10806 6.87633 6.92198 6.43459L6.89821 6.37261L6.84439 6.21336C6.65349 5.65553 6.51655 5.25099 6.27826 4.82806C6.15167 4.60449 5.95639 4.44947 5.78752 4.31311C5.56672 4.14161 5.45224 3.98381 5.42832 3.86612C5.4063 3.74931 5.39449 3.52924 5.77177 3.02173C6.14832 2.51714 6.20111 2.13607 6.01269 1.93933C5.94444 1.86933 5.82791 1.82456 5.67843 1.82456C5.41403 1.82456 5.04652 1.96471 4.66778 2.34957C4.07904 2.9529 4.4133 3.52559 4.4133 3.77702C4.4133 4.02829 4.30538 4.17048 3.95217 4.51232C3.59632 4.85562 3.47338 5.15007 3.4327 6.33324C3.41709 6.94283 3.30976 7.29372 3.21336 7.60493C3.13009 7.87764 3.05352 8.13402 3.04929 8.50445C3.04273 8.91498 3.11098 9.17952 3.19075 9.48476C3.26907 9.76695 3.3522 10.0901 3.40543 10.631C3.49016 11.4681 3.4607 12.1753 3.30669 12.8981L3.26557 13.0792L3.25594 13.1313C3.22444 13.2583 3.18682 13.4126 3.13621 13.4703C1.23786 12.1219 0 9.92008 0 7.43109C0 3.3274 3.35788 0 7.50036 0Z" fill="#F14635"/>
</svg>
